<svg width="19" height="18" viewBox="0 0 19 18" fill="none" xmlns="http://www.w3.org/2000/svg">
<path d="M18.2383 15.4105C18.1958 15.3422 18.1403 15.2829 18.075 15.2361C18.0096 15.1892 17.9356 15.1558 17.8572 15.1376C17.7789 15.1195 17.6977 15.1169 17.6184 15.1302C17.5391 15.1435 17.4631 15.1723 17.395 15.2149C16.4644 15.7943 15.4157 16.1577 14.3262 16.2783C13.2367 16.399 12.1339 16.2738 11.0991 15.9121C10.0644 15.5503 9.12382 14.9612 8.34674 14.188C7.56966 13.4149 6.9758 12.4773 6.60884 11.4444H13.765C13.927 11.4444 14.0825 11.38 14.1971 11.2654C14.3117 11.1508 14.3761 10.9953 14.3761 10.8333C14.3761 10.6712 14.3117 10.5157 14.1971 10.4011C14.0825 10.2865 13.927 10.2221 13.765 10.2221H6.29107C6.14385 9.41398 6.14385 8.58587 6.29107 7.7777H13.765C13.927 7.7777 14.0825 7.71332 14.1971 7.59871C14.3117 7.48411 14.3761 7.32867 14.3761 7.16659C14.3761 7.00451 14.3117 6.84908 14.1971 6.73447C14.0825 6.61987 13.927 6.55548 13.765 6.55548H6.60884C6.97464 5.52454 7.56645 4.5885 8.34091 3.81593C9.11537 3.04336 10.0529 2.45384 11.0847 2.09056C12.1165 1.72728 13.2165 1.59945 14.3042 1.71642C15.3918 1.83339 16.4395 2.19221 17.3705 2.76659C17.5083 2.85249 17.6745 2.88015 17.8327 2.84347C17.9908 2.8068 18.1279 2.7088 18.2138 2.57104C18.2997 2.43327 18.3274 2.26702 18.2907 2.10887C18.2541 1.95071 18.1561 1.8136 18.0183 1.7277C16.901 1.03653 15.6396 0.611947 14.3318 0.486865C13.024 0.361782 11.705 0.539562 10.4769 1.00642C9.24892 1.47328 8.14491 2.21668 7.2505 3.17898C6.3561 4.14129 5.69532 5.29664 5.3194 6.55548H1.16385C1.00177 6.55548 0.84633 6.61987 0.731725 6.73447C0.617119 6.84908 0.552734 7.00451 0.552734 7.16659C0.552734 7.32867 0.617119 7.48411 0.731725 7.59871C0.84633 7.71332 1.00177 7.7777 1.16385 7.7777H5.05662C4.99484 8.18225 4.96216 8.5907 4.95885 8.99992C4.96216 9.40915 4.99484 9.8176 5.05662 10.2221H1.16385C1.00177 10.2221 0.84633 10.2865 0.731725 10.4011C0.617119 10.5157 0.552734 10.6712 0.552734 10.8333C0.552734 10.9953 0.617119 11.1508 0.731725 11.2654C0.84633 11.38 1.00177 11.4444 1.16385 11.4444H5.3194C5.69611 12.7062 6.35901 13.864 7.25647 14.8277C8.15392 15.7913 9.26171 16.5348 10.4936 17.0002C11.7254 17.4656 13.0481 17.6404 14.3585 17.511C15.669 17.3815 16.9319 16.9513 18.0488 16.2538C18.1167 16.2109 18.1754 16.155 18.2216 16.0894C18.2678 16.0238 18.3007 15.9497 18.3183 15.8714C18.3358 15.7931 18.3378 15.7121 18.3241 15.633C18.3104 15.5539 18.2812 15.4783 18.2383 15.4105Z" fill="black"/>
</svg>
