<svg width="16" height="18" viewBox="0 0 16 18" fill="none" xmlns="http://www.w3.org/2000/svg">
<path d="M14.4638 10.0937H5.71716C6.34186 9.80976 7.01871 9.59613 7.71751 9.37826C8.98187 8.98434 10.2831 8.57611 11.3415 7.68637H14.4638C14.7169 7.68637 14.9221 7.48119 14.9221 7.22804C14.9221 6.97488 14.7169 6.7697 14.4638 6.7697H12.1651C12.7078 5.91968 12.8418 4.87715 12.5134 3.8131C12.0278 2.23972 10.6392 0.924522 9.13638 0.614789C7.74115 0.326898 6.1855 0.641286 4.977 1.45519C3.91997 2.16703 3.2194 3.20186 3.00402 4.36954C2.95819 4.6184 3.12272 4.85759 3.37176 4.90343C3.62026 4.94783 3.85964 4.7849 3.90565 4.53569C4.07573 3.61257 4.63809 2.78865 5.48905 2.21573C6.49738 1.53647 7.79056 1.27221 8.95161 1.51284C10.1415 1.75776 11.2461 2.81515 11.6375 4.08344C11.8144 4.65636 11.9773 5.75528 11.0832 6.67911C11.0518 6.71161 11.0169 6.73846 10.9847 6.7697H1.53646C1.2833 6.7697 1.07812 6.97488 1.07812 7.22804C1.07812 7.48119 1.2833 7.68637 1.53646 7.68637H9.65366C8.97305 8.02213 8.22246 8.26067 7.44484 8.50313C6.23024 8.88182 4.98018 9.27395 3.94047 10.0937H1.53646C1.2833 10.0937 1.07812 10.2989 1.07812 10.552C1.07812 10.8052 1.2833 11.0104 1.53646 11.0104H3.07452C2.34521 12.1401 2.32511 13.7017 3.0853 15.0509C4.06911 16.7965 5.97961 17.4879 7.81294 17.4879C8.45031 17.4879 9.07837 17.4045 9.65487 17.2526C12.0697 16.6163 13.5672 14.9252 13.5632 12.8394C13.5629 12.5862 13.3577 12.3818 13.1049 12.3818C13.1045 12.3818 13.1042 12.3818 13.1042 12.3818C12.851 12.3821 12.6462 12.588 12.6466 12.8408C12.6505 14.8127 10.983 15.9546 9.4214 16.3661C7.45558 16.8835 4.9224 16.4438 3.88381 14.6011C3.31519 13.5917 3.16641 12.0627 4.18369 11.0916C4.21415 11.0626 4.24752 11.0384 4.2786 11.0104H14.4638C14.7169 11.0104 14.9221 10.8052 14.9221 10.552C14.9221 10.2989 14.7169 10.0937 14.4638 10.0937Z" fill="#1D1C1A" stroke="black" stroke-width="0.7"/>
</svg>
