<svg width="14" height="20" viewBox="0 0 14 20" fill="none" xmlns="http://www.w3.org/2000/svg">
<path d="M9.0625 9.48438H7.51562V3.64062H8.375C9.14966 3.64149 9.89235 3.94961 10.4401 4.49738C10.9879 5.04515 11.296 5.78784 11.2969 6.5625C11.2969 6.69925 11.3512 6.8304 11.4479 6.9271C11.5446 7.0238 11.6757 7.07812 11.8125 7.07812C11.9493 7.07812 12.0804 7.0238 12.1771 6.9271C12.2738 6.8304 12.3281 6.69925 12.3281 6.5625C12.3269 5.51443 11.9101 4.50962 11.169 3.76852C10.4279 3.02743 9.42307 2.61056 8.375 2.60938H7.51562V1.0625C7.51562 0.925748 7.4613 0.794596 7.3646 0.697898C7.2679 0.6012 7.13675 0.546875 7 0.546875C6.86325 0.546875 6.7321 0.6012 6.6354 0.697898C6.5387 0.794596 6.48438 0.925748 6.48438 1.0625V2.60938H5.28125C4.23282 2.60938 3.22732 3.02586 2.48597 3.76722C1.74461 4.50857 1.32812 5.51407 1.32812 6.5625C1.32812 7.61093 1.74461 8.61643 2.48597 9.35778C3.22732 10.0991 4.23282 10.5156 5.28125 10.5156H6.48438V16.3594H4.9375C4.16284 16.3585 3.42015 16.0504 2.87238 15.5026C2.32461 14.9549 2.01649 14.2122 2.01562 13.4375C2.01562 13.3007 1.9613 13.1696 1.8646 13.0729C1.7679 12.9762 1.63675 12.9219 1.5 12.9219C1.36325 12.9219 1.2321 12.9762 1.1354 13.0729C1.0387 13.1696 0.984375 13.3007 0.984375 13.4375C0.985558 14.4856 1.40243 15.4904 2.14352 16.2315C2.88462 16.9726 3.88943 17.3894 4.9375 17.3906H6.48438V18.9375C6.48438 19.0743 6.5387 19.2054 6.6354 19.3021C6.7321 19.3988 6.86325 19.4531 7 19.4531C7.13675 19.4531 7.2679 19.3988 7.3646 19.3021C7.4613 19.2054 7.51562 19.0743 7.51562 18.9375V17.3906H9.0625C10.1109 17.3906 11.1164 16.9741 11.8578 16.2328C12.5991 15.4914 13.0156 14.4859 13.0156 13.4375C13.0156 12.3891 12.5991 11.3836 11.8578 10.6422C11.1164 9.90086 10.1109 9.48438 9.0625 9.48438ZM5.28125 9.48438C4.50632 9.48438 3.76313 9.17654 3.21517 8.62858C2.66721 8.08062 2.35938 7.33743 2.35938 6.5625C2.35938 5.78757 2.66721 5.04438 3.21517 4.49642C3.76313 3.94846 4.50632 3.64062 5.28125 3.64062H6.48438V9.48438H5.28125ZM9.0625 16.3594H7.51562V10.5156H9.0625C9.83743 10.5156 10.5806 10.8235 11.1286 11.3714C11.6765 11.9194 11.9844 12.6626 11.9844 13.4375C11.9844 14.2124 11.6765 14.9556 11.1286 15.5036C10.5806 16.0515 9.83743 16.3594 9.0625 16.3594Z" fill="black"/>
</svg>
