<svg width="30" height="30" viewBox="0 0 30 30" fill="none" xmlns="http://www.w3.org/2000/svg">
<rect width="30" height="30" fill="#F4F4F4"/>
<path d="M14.1522 7.14288H15.4915C15.6105 7.14288 15.6701 7.20241 15.6701 7.32145V23.0357C15.6701 23.1548 15.6105 23.2143 15.4915 23.2143H14.1522C14.0332 23.2143 13.9736 23.1548 13.9736 23.0357V7.32145C13.9736 7.20241 14.0332 7.14288 14.1522 7.14288Z" fill="black"/>
<path d="M7.32115 14.3304H22.3211C22.4402 14.3304 22.4997 14.3899 22.4997 14.509V15.8482C22.4997 15.9673 22.4402 16.0268 22.3211 16.0268H7.32115C7.2021 16.0268 7.14258 15.9673 7.14258 15.8482V14.509C7.14258 14.3899 7.2021 14.3304 7.32115 14.3304Z" fill="black"/>
</svg>
