<svg width="18" height="18" viewBox="0 0 18 18" fill="none" xmlns="http://www.w3.org/2000/svg">
<path d="M17.2012 5.613C17.192 4.91874 17.062 4.23138 16.8172 3.58167C16.6048 3.03364 16.2805 2.53593 15.8649 2.12034C15.4493 1.70476 14.9516 1.38043 14.4036 1.16808C13.7622 0.927327 13.0847 0.797146 12.3997 0.783083C11.5179 0.743666 11.2383 0.732666 8.99982 0.732666C6.76132 0.732666 6.4744 0.732666 5.59899 0.783083C4.91438 0.797249 4.23714 0.927428 3.59607 1.16808C3.04796 1.38028 2.55017 1.70456 2.13457 2.12016C1.71896 2.53577 1.39469 3.03355 1.18249 3.58167C0.941249 4.22254 0.81135 4.89993 0.798404 5.58458C0.758987 6.46733 0.74707 6.74692 0.74707 8.98542C0.74707 11.2239 0.74707 11.5099 0.798404 12.3862C0.812154 13.0719 0.941404 13.7484 1.18249 14.391C1.39504 14.9389 1.71956 15.4365 2.1353 15.852C2.55105 16.2674 3.04888 16.5915 3.59699 16.8037C4.2363 17.0541 4.91366 17.1936 5.5999 17.2162C6.48265 17.2556 6.76224 17.2675 9.00074 17.2675C11.2392 17.2675 11.5262 17.2675 12.4016 17.2162C13.0865 17.2027 13.7641 17.0728 14.4054 16.8321C14.9533 16.6195 15.4509 16.2951 15.8664 15.8795C16.282 15.464 16.6064 14.9664 16.819 14.4185C17.0601 13.7768 17.1893 13.1003 17.2031 12.4137C17.2425 11.5319 17.2544 11.2523 17.2544 9.01292C17.2526 6.77442 17.2526 6.49025 17.2012 5.613ZM8.99432 13.2186C6.65315 13.2186 4.75657 11.322 4.75657 8.98083C4.75657 6.63967 6.65315 4.74308 8.99432 4.74308C10.1182 4.74308 11.1961 5.18956 11.9909 5.98429C12.7856 6.77902 13.2321 7.85691 13.2321 8.98083C13.2321 10.1048 12.7856 11.1826 11.9909 11.9774C11.1961 12.7721 10.1182 13.2186 8.99432 13.2186ZM13.4007 5.5745C13.2709 5.57462 13.1424 5.54914 13.0224 5.49953C12.9025 5.44991 12.7935 5.37712 12.7017 5.28534C12.6099 5.19356 12.5372 5.08457 12.4875 4.96463C12.4379 4.84469 12.4124 4.71613 12.4126 4.58633C12.4126 4.45662 12.4381 4.32819 12.4878 4.20835C12.5374 4.08852 12.6101 3.97963 12.7019 3.88792C12.7936 3.7962 12.9025 3.72345 13.0223 3.67381C13.1421 3.62417 13.2706 3.59862 13.4003 3.59862C13.53 3.59862 13.6584 3.62417 13.7783 3.67381C13.8981 3.72345 14.007 3.7962 14.0987 3.88792C14.1904 3.97963 14.2632 4.08852 14.3128 4.20835C14.3624 4.32819 14.388 4.45662 14.388 4.58633C14.388 5.13267 13.9462 5.5745 13.4007 5.5745Z" fill="#DA1F39"/>
</svg>
