<svg width="18" height="16" viewBox="0 0 18 16" fill="none" xmlns="http://www.w3.org/2000/svg">
<path d="M0.356934 4.95447L8.72793 9.30811C8.8119 9.35177 8.90515 9.37457 8.99979 9.37457C9.09443 9.37457 9.18768 9.35177 9.27165 9.30811L17.6426 4.95525V12.5178C17.6427 13.17 17.3931 13.7975 16.9452 14.2717C16.4972 14.7458 15.8849 15.0305 15.2336 15.0674L15.0891 15.0713H2.91051C2.25825 15.0714 1.63071 14.8218 1.15661 14.3739C0.682508 13.9259 0.39779 13.3135 0.360862 12.6623L0.356934 12.5178V4.95447ZM2.91051 0.928467H15.0891C15.7413 0.928424 16.3689 1.17797 16.843 1.62592C17.3171 2.07387 17.6018 2.68626 17.6387 3.33747L17.6426 3.48204V3.62661L8.99979 8.1209L0.356934 3.62661V3.48204C0.356891 2.82979 0.60644 2.20224 1.05439 1.72814C1.50234 1.25404 2.11473 0.969323 2.76593 0.932395L2.91051 0.928467H15.0891H2.91051Z" fill="#DA1F39"/>
</svg>
