<svg width="22" height="13" viewBox="0 0 22 13" fill="none" xmlns="http://www.w3.org/2000/svg">
<path d="M5.048 12.08C4.152 12.08 3.39467 11.92 2.776 11.6C2.168 11.28 1.67733 10.848 1.304 10.304C0.930667 9.76 0.664 9.152 0.504 8.48C0.344 7.79733 0.264 7.09333 0.264 6.368V0.639999H1.368V6.368C1.368 6.96533 1.42667 7.54667 1.544 8.112C1.672 8.66667 1.87467 9.168 2.152 9.616C2.42933 10.064 2.80267 10.4213 3.272 10.688C3.74133 10.944 4.328 11.072 5.032 11.072C5.75733 11.072 6.35467 10.9387 6.824 10.672C7.304 10.4053 7.68267 10.048 7.96 9.6C8.23733 9.14133 8.42933 8.63467 8.536 8.08C8.65333 7.51467 8.712 6.944 8.712 6.368V0.639999H9.832V6.368C9.832 7.12533 9.74667 7.85067 9.576 8.544C9.40533 9.22667 9.128 9.83467 8.744 10.368C8.37067 10.9013 7.88 11.3227 7.272 11.632C6.664 11.9307 5.92267 12.08 5.048 12.08ZM15.5534 0.639999H16.4974L21.2174 12H20.0334L18.5614 8.448H13.4574L12.0014 12H10.8014L15.5534 0.639999ZM18.3054 7.568L16.0174 1.952L13.6974 7.568H18.3054Z" fill="black"/>
</svg>
